<svg xmlns="http://www.w3.org/2000/svg" width="194" height="64" viewBox="0 0 194 64" class="o-icon">
						<title>Hochschule Karlsruhe</title>
						<desc>Hochschule Karlsruhe - University of Applied Sciences</desc>
						<path fill="#D72305" d="M16.13 49.262c1.508 0 2.652.626 3.276 1.668.52.938.728 1.929.728 3.597s-.208 2.659-.728 3.597c-.624 1.042-1.82 1.668-3.275 1.668-1.612 0-1.872-.626-2.34-.626-.312 0-.416.209-.416.626v3.44c0 .21-.208.418-.416.418h-.364c-.182-.046-.364-.171-.407-.377l-.01-.093V49.888c0-.186.165-.371.348-.41l.069-.008h.312c.156 0 .26.053.312.209.156.26.312.365.52.365.52 0 .728-.782 2.392-.782zm10.712 0c1.508 0 2.704.626 3.276 1.668.52.938.728 1.929.728 3.597s-.208 2.659-.728 3.597c-.624 1.042-1.82 1.668-3.276 1.668-1.612 0-1.872-.626-2.34-.626-.312 0-.416.209-.416.626v3.44c0 .21-.208.418-.416.418h-.416c-.208-.053-.364-.209-.364-.47V49.888c0-.209.208-.418.416-.418h.312c.156 0 .26.053.312.209.156.26.312.365.52.365.52 0 .728-.782 2.392-.782zm71.131.052c2.6 0 4.212 1.668 4.212 4.431v.886c0 .186-.164.37-.347.41l-.069.007h-6.551c-.087 0-.174.036-.2.14l-.008.069c0 2.137 1.092 3.388 3.015 3.388 1.352 0 2.392-.521 2.808-1.876.052-.209.26-.365.468-.313h.416c.156 0 .364.104.364.26v.105c-.26 1.772-1.924 3.023-4.056 3.023-1.611-.052-2.807-.573-3.483-1.564-.676-.99-.884-1.928-.884-3.7-.104-1.304.26-2.555.988-3.65.78-1.095 2.028-1.668 3.327-1.616zm31.875 0c2.6 0 4.211 1.668 4.211 4.431v.886c0 .186-.164.37-.347.41l-.069.007h-6.551c-.087 0-.174.036-.2.14l-.008.069c0 2.137 1.092 3.388 3.016 3.388 1.351 0 2.391-.521 2.807-1.876.052-.209.26-.365.468-.313h.416c.156 0 .364.104.364.26v.105c-.26 1.772-1.924 3.023-4.055 3.023-1.664-.052-2.86-.573-3.484-1.564-.676-.99-.884-1.928-.884-3.7-.104-1.304.26-2.555.988-3.65.78-1.095 2.028-1.668 3.328-1.616zm-7.436.834c.676.626 1.092 1.564 1.092 2.502 0 .209-.104.365-.312.417h-.572c-.208 0-.416-.104-.416-.312 0-.678-.26-1.304-.78-1.773-.572-.365-1.196-.573-1.872-.521-1.092-.052-2.132.573-2.6 1.564-.52 1.616-.52 3.388 0 5.004.468.99 1.456 1.616 2.6 1.564.78.052 1.508-.208 2.028-.73.364-.417.572-.99.572-1.564 0-.26.208-.365.416-.365h.468c.208 0 .416.157.416.418 0 .834-.312 1.668-.884 2.293-1.82 1.668-4.628 1.512-6.292-.313-.104-.156-.156-.26-.26-.364-.676-.99-.728-1.981-.728-3.441 0-1.46.052-2.45.728-3.44.78-1.147 2.132-1.877 3.536-1.825 1.04-.052 2.028.26 2.86.886zm-36.398 0c.676.626 1.092 1.564 1.092 2.502 0 .209-.104.365-.312.417h-.572c-.208 0-.416-.104-.416-.312 0-.678-.26-1.304-.78-1.773-.572-.365-1.196-.573-1.872-.521-1.092-.052-2.131.573-2.6 1.564-.52 1.616-.52 3.388 0 5.004.469.99 1.508 1.616 2.6 1.564.78.052 1.508-.208 2.08-.73.364-.417.572-.99.572-1.564 0-.26.208-.365.416-.365h.468c.208 0 .416.157.416.418 0 .834-.312 1.668-.884 2.293-1.82 1.668-4.627 1.512-6.291-.313-.156-.156-.26-.26-.312-.364-.631-.925-.719-1.85-.727-3.155l-.001-.286c0-1.46.052-2.45.728-3.44.78-1.147 2.131-1.877 3.535-1.825 1.04-.052 2.028.26 2.86.886zm-39.725-.834c2.6 0 4.211 1.668 4.211 4.431v.886c0 .186-.164.37-.346.41l-.07.007h-6.551c-.083 0-.167.034-.196.1l-.012.057c0 2.137 1.092 3.388 3.016 3.388 1.352 0 2.392-.521 2.808-1.877.052-.208.26-.364.467-.312h.416c.156 0 .364.104.364.26v.105c-.26 1.772-1.923 3.023-4.055 3.023-1.612 0-2.808-.521-3.484-1.512-.676-.99-.884-1.928-.884-3.7 0-1.617.26-2.607.988-3.65.78-1.095 2.028-1.668 3.328-1.616zm14.09-4.118c.186 0 .37.123.41.334l.007.083v13.501c0 .186-.165.371-.347.41l-.07.007h-.311c-.156 0-.26-.052-.312-.156-.156-.26-.312-.365-.52-.365-.52 0-.728.782-2.392.782-1.508 0-2.704-.626-3.328-1.668-.52-.886-.728-1.877-.728-3.597s.208-2.659.728-3.597c.624-1.042 1.82-1.668 3.276-1.668 1.612 0 1.872.626 2.34.626.312 0 .416-.209.416-.626v-3.65c0-.184.164-.37.347-.409l.069-.007h.416zm79.816 4.066c2.288 0 3.692 1.147 3.692 3.023 0 .186-.165.371-.347.41l-.07.007h-.415c-.185 0-.37-.123-.409-.334l-.007-.083c0-1.303-.78-1.928-2.444-1.928-1.456 0-2.34.625-2.34 1.564 0 .938.624 1.303 2.912 1.824 2.6.573 3.328 1.303 3.328 3.024 0 1.72-1.56 2.919-4.004 2.919-2.548.104-4.056-1.251-4.056-3.389 0-.208.208-.417.416-.417h.416c.208 0 .416.157.416.417 0 1.46 1.04 2.346 2.808 2.346 1.768 0 2.756-.625 2.756-1.772s-.676-1.564-3.016-2.033c-2.34-.47-3.276-1.303-3.276-2.867s1.56-2.711 3.64-2.711zm-67.856-4.066c2.34 0 4.108 1.407 4.108 3.805v.261c0 .208-.208.417-.416.417h-.52c-.208 0-.416-.156-.416-.417v-.26c0-1.669-1.144-2.555-2.704-2.555-1.664 0-2.808.73-2.808 2.242 0 1.668 1.664 2.345 3.536 2.867 1.872.52 3.64 1.616 3.64 4.066 0 2.606-2.184 4.014-4.472 4.014-2.6.156-4.524-1.304-4.524-4.119v-.312c0-.186.165-.371.347-.41l.07-.007h.52c.207 0 .415.156.415.417v.312c0 1.877 1.3 2.92 3.12 2.92s3.068-.939 3.068-2.763c0-1.825-1.404-2.45-3.432-3.024-1.82-.52-3.744-1.511-3.744-3.91 0-2.397 2.132-3.544 4.212-3.544zm18.147 4.274c.208 0 .416.105.416.313v9.331c0 .209-.156.365-.364.417 0 .053-.052.053-.052.053h-.416c-.208.052-.416-.105-.416-.313v-9.383c0-.209.156-.365.364-.418h.468zM5.731 45.457c.208 0 .364.104.416.312L10.1 59.062c0 .052.052.157.052.209 0 .156-.156.313-.416.313h-.52c-.208 0-.364-.105-.416-.313l-1.04-3.389c-.052-.156-.208-.312-.416-.26H3.027c-.208 0-.364.104-.416.26l-1.04 3.389c-.052.156-.208.313-.416.313h-.52c-.207 0-.415-.157-.415-.313 0-.052 0-.157.052-.209L4.275 45.77c.052-.156.208-.312.416-.312h1.04zm33.07 4.013c.208 0 .416.105.416.313v9.331c0 .209-.156.365-.364.417 0 .053 0 .053-.052.053h-.416c-.208 0-.416-.105-.416-.313v-9.383c0-.209.156-.365.364-.418h.468zm70.352-.156c2.028 0 3.536 1.147 3.536 3.336v6.516c0 .186-.165.371-.347.41l-.07.008h-.415c-.185 0-.37-.124-.409-.335l-.007-.083v-6.36c0-1.615-1.144-2.345-2.652-2.345-1.508 0-2.652.73-2.652 2.346v6.36c0 .185-.164.37-.347.41l-.069.007h-.416c-.26 0-.416-.209-.416-.418v-9.278c0-.209.208-.418.416-.418h.312c.104 0 .208.053.312.157.104.208.208.417.416.417.572 0 .78-.73 2.808-.73zm-74.72-4.066c.185 0 .37.124.409.334l.007.083v13.501c0 .186-.164.371-.347.41l-.069.008h-.416c-.208 0-.416-.209-.416-.418v-13.5c0-.186.165-.372.347-.41l.07-.008h.415zm21.32 5.421c-.625.261-1.093.73-1.353 1.356-.26.782-.364 1.668-.312 2.502-.052.834.052 1.668.312 2.502.312.99 1.3 1.668 2.392 1.564 1.04.104 2.028-.573 2.392-1.564.26-.782.364-1.668.312-2.502.052-.834-.052-1.72-.312-2.502-.572-1.303-2.08-1.929-3.432-1.356zm-39.622-.208c-1.04-.104-2.028.573-2.392 1.564-.26.782-.364 1.668-.312 2.502-.052.834.052 1.668.312 2.502.572 1.303 2.08 1.929 3.431 1.356.624-.261 1.092-.73 1.352-1.356.26-.782.364-1.668.312-2.502.052-.834-.052-1.72-.312-2.502-.312-.99-1.3-1.668-2.391-1.564zm10.71 0c-1.039-.104-2.027.573-2.391 1.564-.26.782-.364 1.668-.312 2.502-.052.834.052 1.668.312 2.502.572 1.303 2.08 1.929 3.432 1.356.624-.261 1.092-.73 1.352-1.356.26-.782.364-1.668.312-2.502.052-.834-.052-1.72-.312-2.502-.312-.99-1.3-1.668-2.392-1.564zM5.108 47.177h-.052c-.052 0-.052.052-.104.104L3.027 54.11c-.052.156.052.208.156.208H6.98c.104 0 .208-.052.156-.208l-1.924-6.829c0-.104-.052-.104-.104-.104zm124.689 3.388c-1.872 0-2.964 1.251-2.964 3.18 0 .087.072.174.156.2l.052.009h5.46V53.9c.083 0 .166-.033.196-.1l.011-.056c0-2.033-1.04-3.18-2.911-3.18zm-31.875 0c-1.871 0-2.963 1.251-2.963 3.18 0 .087.072.174.156.2l.052.009h5.46V53.9c.083 0 .166-.033.196-.1l.011-.056c0-2.033-1.04-3.18-2.912-3.18zm-51.632-.052c-1.82 0-2.964 1.251-2.964 3.18 0 .087.072.174.156.2l.052.008h5.408c.086 0 .173-.036.2-.138l.008-.07c0-2.033-1.04-3.18-2.86-3.18zm44.613-5.265c.156 0 .312.156.312.313v1.199c0 .134-.115.268-.246.303l-.066.01h-1.196c-.208.052-.364-.105-.364-.313v-1.2c0-.156.156-.312.312-.312h1.248zm-51.737 0c.156 0 .312.156.312.313v1.199c0 .134-.114.268-.245.303l-.067.01H37.97c-.156 0-.312-.105-.312-.313v-1.2c0-.156.156-.312.312-.312h1.196zm38.842-18.14c.208 0 .312.051.416.312l3.224 7.402c.052.104.052.104.103.104.052 0 .052 0 .104-.104l2.808-7.402c.104-.26.208-.313.416-.313h.572c.179 0 .319.077.388.23l.028.083c0 .104-.052.208-.104.313l-5.251 13.24c-.052.209-.208.313-.416.313h-.468c-.26-.052-.364-.156-.364-.365 0-.104 0-.208.052-.312l1.456-3.858c.052-.052.052-.156.052-.209 0-.052-.052-.156-.052-.208l-3.848-8.55c-.052-.103-.104-.208-.104-.312 0-.209.156-.365.364-.365h.624zm-35.462-.157c2.6 0 4.212 1.668 4.212 4.43v.887c0 .208-.208.417-.416.417h-6.552c-.083 0-.166.033-.196.1l-.012.056v.052c0 2.138 1.092 3.389 3.016 3.389 1.352 0 2.392-.521 2.808-1.877.052-.208.26-.365.468-.365h.416c.156 0 .364.105.364.313v.104c-.26 1.773-1.924 3.024-4.056 3.024-1.612-.052-2.808-.574-3.484-1.564-.676-.99-.884-1.929-.884-3.753 0-1.616.26-2.607.988-3.65.78-1.042 2.028-1.668 3.328-1.563zM2.299 23.093c.185 0 .37.124.409.334l.007.083v9.592c.052 1.772 1.56 3.128 3.276 3.023 1.664-.052 2.964-1.407 3.016-3.023V23.51c0-.185.164-.37.347-.41l.069-.007h.52c.208 0 .416.157.416.417v9.592c-.104 2.502-2.184 4.43-4.628 4.379-2.34-.104-4.212-2.033-4.368-4.379V23.51c0-.185.165-.37.347-.41l.07-.007h.52zm97.234 5.63c.572.834.728 1.616.728 3.44 0 1.825-.156 2.607-.728 3.441-1.404 1.981-4.107 2.398-6.083.99-.416-.26-.728-.625-.988-.99-.52-.834-.728-1.616-.728-3.44 0-1.825.156-2.607.728-3.44.78-1.148 2.132-1.825 3.536-1.825 1.404-.053 2.755.625 3.535 1.824zM59.34 26.9c2.288 0 3.692 1.146 3.692 3.023 0 .209-.208.417-.416.417H62.2c-.208 0-.416-.156-.416-.417 0-1.303-.78-1.929-2.444-1.929-1.456 0-2.34.626-2.34 1.616 0 .99.624 1.304 2.912 1.825 2.6.573 3.328 1.303 3.328 3.023 0 1.72-1.56 2.92-4.004 2.92-2.444.052-4.004-1.304-4.004-3.441 0-.209.208-.417.416-.417h.416c.185 0 .37.124.409.334l.007.083c0 1.46 1.04 2.346 2.808 2.346 1.768 0 2.756-.626 2.756-1.773 0-1.146-.676-1.563-3.016-2.033-2.34-.469-3.328-1.303-3.328-2.867s1.56-2.71 3.64-2.71zm48.2-4.014c.209 0 .417.156.417.417v.312c0 .186-.164.371-.347.41l-.07.007h-.103c-1.456 0-2.288.99-2.288 2.66v.364c0 .087.072.174.157.2l.051.008h2.392c.185 0 .37.124.408.335l.008.083v.364c0 .209-.208.417-.416.417h-2.392c-.104 0-.208.053-.208.157v8.236c0 .209-.208.417-.416.417h-.416c-.208-.052-.416-.208-.416-.469V28.62c0-.087-.072-.174-.156-.2l-.052-.009h-1.82c-.185 0-.37-.123-.408-.334l-.008-.083v-.365c0-.185.165-.37.347-.41l.07-.007h1.82c.086 0 .172-.036.199-.138l.008-.07v-.365c0-2.294 1.352-3.753 3.536-3.753h.104zm-57.404 4.222c.208 0 .364.104.416.417.052.313.052.73.364.73.52 0 .936-1.095 2.808-1.095h.26c.185 0 .37.124.409.334l.007.083v.417c0 .186-.164.371-.347.41l-.069.007h-.26c-1.352 0-3.068.73-3.068 3.389v5.056c0 .209-.208.417-.416.417h-.416c-.156-.052-.364-.208-.364-.469v-9.279c0-.185.165-.37.347-.41l.07-.007h.26zm-32.29-.156c2.028 0 3.536 1.147 3.536 3.336v6.516c0 .209-.208.417-.416.417h-.416c-.185 0-.37-.123-.408-.334l-.008-.083v-6.36c0-1.616-1.144-2.345-2.652-2.345-1.507 0-2.651.73-2.651 2.345v6.36c0 .209-.208.417-.416.417h-.416c-.208 0-.364-.156-.416-.417v-9.279c0-.185.164-.37.347-.41l.069-.007h.312c.104 0 .208.052.312.156.104.209.208.418.416.418.572 0 .78-.73 2.807-.73zm48.773.156c.208 0 .416.104.416.313v9.331c0 .209-.156.365-.364.417 0 .04 0 .049-.022.051l-.446.001c-.208 0-.416-.104-.416-.313v-9.383c0-.208.156-.365.364-.417h.468zm-41.389 0c.208 0 .416.104.416.313v9.331c0 .209-.156.365-.364.417 0 .04-.03.049-.044.051l-.424.001c-.208 0-.416-.104-.416-.313v-9.383c0-.208.156-.365.364-.417h.468zm3.224 0c.208 0 .364.104.416.313l3.12 8.132c.052.104.104.156.156.156.104 0 .156-.052.208-.156l3.12-8.132c.051-.209.207-.313.415-.313h.52c.179 0 .319.077.388.23l.028.083c0 .104-.052.208-.104.313l-3.64 9.122c-.051.157-.207.313-.415.313h-1.04c-.104.052-.26-.052-.312-.26l-3.64-9.123c-.052-.104-.104-.209-.104-.313 0-.182.12-.325.288-.358l.076-.007h.52zm43.73-3.649c.207 0 .415.156.415.417v3.128c0 .087.072.174.157.2l.051.008h2.652c.185 0 .37.124.408.334l.008.083v.365c0 .186-.164.371-.347.41l-.07.007h-2.65c-.084 0-.167.034-.197.1l-.012.057v5.369c0 1.355.52 2.033 1.976 2.033h1.04c.208 0 .416.156.416.417v.365c0 .209-.208.417-.416.417h-1.04c-2.132.052-3.224-.834-3.224-3.18v-5.37c0-.086-.072-.173-.156-.2l-.052-.008h-1.716c-.208 0-.416-.156-.416-.417v-.365c0-.185.165-.37.347-.41l.07-.007h1.715c.087 0 .173-.036.2-.138l.008-.07v-3.128c0-.185.164-.37.347-.41l.07-.007h.415zm23.762 4.64c-1.092 0-2.08.573-2.6 1.563-.312.574-.364 1.147-.364 2.503 0 1.355.104 1.928.364 2.502.468.99 1.508 1.564 2.6 1.564 1.144.052 2.131-.574 2.6-1.564.311-.574.363-1.147.363-2.502 0-1.356-.104-1.93-.364-2.503-.468-.99-1.507-1.563-2.6-1.563zm-53.401.104c-1.82 0-2.964 1.25-2.964 3.18 0 .087.072.173.157.2l.051.008h5.408v-.052c.083 0 .166-.033.196-.1l.012-.056c0-2.085-1.04-3.18-2.86-3.18zm-16.951-5.317c.156 0 .312.156.312.312v1.2c0 .133-.115.267-.246.303l-.066.01h-1.196c-.136.045-.273-.07-.305-.238l-.007-.076v-1.199c0-.156.156-.312.312-.312h1.196zm41.39 0c.155 0 .311.156.311.312v1.2c0 .133-.114.267-.245.303l-.067.01h-1.196c-.136.045-.272-.07-.304-.238l-.007-.076v-1.199c0-.156.155-.312.311-.312h1.196zM189.54 4.639c2.756 0 4.264 1.72 4.264 4.796v.887c0 .185-.165.37-.347.41l-.07.007h-5.407c-.083 0-.166.033-.196.1l-.012.056c0 1.355.52 1.929 1.768 1.929.884 0 1.352-.313 1.612-.99.052-.21.26-.366.468-.366h1.768c.208 0 .364.105.364.313v.157c-.416 1.98-2.236 3.284-4.212 3.18-1.352.052-2.652-.574-3.484-1.617-.676-.886-.936-1.876-.936-3.649 0-1.772.26-2.762.936-3.649.884-1.042 2.132-1.616 3.484-1.564zM20.654 5.786c.156.157.312.261.416.417.676.887.936 1.877.936 3.65 0 1.772-.26 2.762-.936 3.648-1.664 1.93-4.627 2.138-6.551.417l-.274-.274-.142-.143c-.676-.886-.936-1.876-.936-3.649 0-1.772.26-2.762.936-3.649 1.664-1.928 4.627-2.137 6.551-.417zm42.378-.26c.832.782 1.3 1.876 1.3 3.023 0 .209-.104.365-.312.417h-2.028c-.179 0-.319-.076-.388-.23l-.028-.083c0-.417-.156-.782-.468-1.094-.364-.26-.728-.365-1.144-.313-.468-.052-.988.104-1.3.47-.26.364-.312.885-.312 2.136 0 1.251.104 1.825.312 2.138.312.365.832.573 1.3.469.416.052.832-.052 1.144-.26.26-.21.364-.47.468-1.2 0-.208.156-.26.416-.26h1.924c.208 0 .364.156.364.364v.053c.052 1.042-.312 2.033-.988 2.762-.884.835-2.08 1.252-3.328 1.147-1.3.105-2.6-.521-3.432-1.564-.676-.886-.936-1.876-.936-3.649 0-1.772.26-2.762.936-3.649.832-1.042 2.132-1.616 3.484-1.564 1.092-.052 2.132.261 3.016.887zm35.253-.887c2.756 0 4.264 1.72 4.264 4.796v.887c0 .185-.164.37-.347.41l-.069.007h-5.407c-.084 0-.167.033-.197.1l-.011.056c0 1.355.52 1.929 1.767 1.929.832 0 1.352-.313 1.612-.99.052-.21.26-.366.468-.366h1.768c.208 0 .364.105.364.261v.156c-.416 1.981-2.236 3.285-4.212 3.18-1.351.105-2.651-.521-3.483-1.564-.676-.886-.936-1.876-.936-3.649 0-1.772.26-2.762.936-3.649.832-1.042 2.132-1.616 3.483-1.564zm67.128.105c.185 0 .37.123.409.334l.007.083v5.942c0 .887.572 1.408 1.56 1.408.988 0 1.56-.521 1.56-1.303V5.16c0-.186.164-.37.347-.41l.07-.007h1.871c.208.052.416.208.416.417v9.279c0 .208-.208.417-.416.417h-1.04c-.156 0-.26-.052-.364-.157-.156-.208-.26-.52-.572-.52-.52 0-.832.885-2.496.885-2.236 0-3.64-1.407-3.64-3.7V5.16c0-.186.165-.37.347-.41l.07-.007h1.871zm-85.534 0c.184 0 .37.123.408.334l.008.083v5.942c0 .887.572 1.408 1.56 1.408.987 0 1.56-.521 1.56-1.303V5.16c0-.186.164-.37.346-.41l.07-.007h1.871c.26.052.416.208.416.417v9.279c0 .185-.164.37-.347.41l-.069.007h-1.04c-.156 0-.26-.052-.364-.157-.156-.208-.26-.52-.572-.52-.52 0-.832.885-2.495.885-2.236 0-3.64-1.407-3.64-3.7V5.16c0-.186.164-.37.347-.41l.069-.007h1.872zm68.687-.209c2.444 0 4.004 1.251 4.004 3.18 0 .209-.156.365-.364.365h-1.768c-.208 0-.364-.104-.416-.313v-.052c0-.625-.52-.99-1.404-.99-.78 0-1.248.312-1.248.782 0 .469.364.73 2.132 1.146 2.496.574 3.328 1.356 3.328 3.18 0 2.033-1.612 3.232-4.264 3.232-2.651 0-4.315-1.303-4.315-3.544 0-.209.156-.365.416-.365h1.82c.207 0 .363.104.415.312v.053c0 .886.52 1.303 1.664 1.303 1.04 0 1.56-.313 1.56-.886 0-.574-.468-.782-2.132-1.147-2.287-.47-3.327-1.564-3.327-3.337 0-1.772 1.612-2.919 3.9-2.919zm-24.074 0c2.548 0 4.16 1.303 4.16 3.65v6.255c0 .208-.208.417-.416.417h-1.04c-.104 0-.208-.052-.312-.157-.104-.156-.26-.417-.468-.417-.364 0-.936.782-2.704.782-2.132 0-3.64-1.199-3.64-3.336 0-1.564 1.196-3.128 3.588-3.128h2.132c.104 0 .208-.052.208-.156V8.08c0-.834-.676-1.251-1.612-1.251-.416 0-1.3.104-1.456.678-.095.331-.19.361-.479.364h-1.6c-.186 0-.37-.123-.41-.334l-.007-.083c0-1.511 1.508-2.919 4.056-2.919zm-74.876 0c2.444 0 3.952 1.251 3.952 3.18 0 .209-.156.365-.416.365h-1.716c-.26 0-.416-.156-.416-.365 0-.625-.52-.99-1.404-.99-.727 0-1.247.312-1.247.782 0 .469.364.73 2.131 1.146 2.496.574 3.328 1.356 3.328 3.18 0 2.033-1.612 3.232-4.264 3.232-2.651 0-4.263-1.303-4.263-3.544 0-.209.156-.365.364-.365h1.872c.208 0 .364.104.416.312v.053c0 .886.52 1.303 1.663 1.303 1.04 0 1.56-.313 1.56-.886 0-.574-.468-.782-2.131-1.147-2.288-.47-3.328-1.564-3.328-3.337 0-1.772 1.612-2.919 3.9-2.919zm-18.198.99c.832.783 1.3 1.877 1.3 3.024 0 .209-.104.365-.312.417H30.43c-.179 0-.319-.076-.388-.23l-.028-.083c.052-.73-.52-1.407-1.248-1.46h-.364c-.468-.051-.988.105-1.3.47-.26.365-.312.886-.312 2.137s.104 1.825.312 2.138c.312.364.832.573 1.3.469.416.052.832-.052 1.144-.26.26-.21.364-.47.468-1.2 0-.208.156-.26.416-.26h1.924c.208 0 .364.156.364.364v.052c.052 1.043-.312 2.034-.988 2.763-.884.834-2.08 1.251-3.328 1.147-1.352.157-2.652-.469-3.484-1.512-.676-.886-.936-1.876-.936-3.649 0-1.772.26-2.762.936-3.649.832-1.042 2.132-1.616 3.484-1.564 1.092-.052 2.132.261 3.016.887zM111.908.73c.209 0 .417.156.417.417v4.952c0 .052.052.104.104.104s.104-.052.156-.104L116.12.94c.052-.105.156-.21.468-.21h2.288c.208 0 .416.157.416.418v.052c0 .104 0 .208-.104.26l-4.16 5.787c-.052.104-.104.208-.104.313 0 .104.052.26.104.365l4.264 6.15c.104.105.104.261.104.366 0 .26-.208.469-.468.469h-2.34c-.208 0-.416-.104-.52-.313l-3.431-5.421c-.052-.105-.104-.209-.208-.209-.084 0-.1.034-.104.074v5.4c0 .208-.208.417-.416.417h-2.08c-.185 0-.37-.124-.409-.334l-.007-.083V1.147c0-.209.208-.417.416-.417h2.08zM37.139.47c.184 0 .369.123.408.333l.007.083v3.65c-.052.208.156.416.364.468h.052c.572-.26 1.196-.417 1.82-.469 2.236 0 3.64 1.408 3.64 3.701v6.152c0 .185-.164.37-.347.41l-.07.007h-1.871c-.208 0-.416-.157-.416-.417V8.497c0-.886-.572-1.407-1.56-1.407-.988 0-1.56.52-1.56 1.303v6.047c0 .208-.208.417-.416.417h-1.872c-.26 0-.468-.157-.468-.417V.886c0-.185.165-.37.347-.41l.07-.007h1.871zm119.228 4.274c.156 0 .364.104.416.26.104.365.208.834.572.834.624 0 .936-1.094 3.016-1.094h.728c.184 0 .37.123.408.334l.008.083V7.09c0 .185-.165.37-.347.41l-.07.007h-.727c-1.56 0-2.704.73-2.704 2.241v4.692c0 .208-.208.417-.416.417h-1.872c-.26 0-.468-.157-.468-.417V5.16c0-.185.164-.37.347-.409l.069-.007h1.04zM68.75.469c.185 0 .37.124.409.334l.007.083v3.65c-.052.208.156.416.364.468h.052c.572-.26 1.196-.417 1.82-.469 2.288 0 3.64 1.408 3.64 3.701v6.152c0 .208-.208.417-.416.417h-1.872c-.208 0-.416-.157-.416-.417V8.497c0-.886-.572-1.407-1.56-1.407-.988 0-1.56.52-1.56 1.303v6.047c0 .185-.164.37-.347.41l-.069.007h-1.872c-.26 0-.468-.157-.468-.417V.886c0-.185.165-.37.347-.41l.07-.007h1.871zM3.755.73c.208 0 .416.157.416.418v5.056c0 .087.073.174.157.2l.051.009H7.5c.083 0 .166-.033.196-.1l.012-.057V1.147c0-.209.208-.417.416-.417h2.08c.185 0 .37.123.408.334l.008.083V14.44c0 .185-.164.37-.347.41l-.07.007H8.124c-.208 0-.416-.157-.416-.417V9.383c0-.087-.072-.174-.156-.2l-.052-.008H4.38c-.083 0-.166.033-.196.1l-.012.056v5.057c0 .208-.312.417-.52.417H1.675c-.26.052-.416-.105-.416-.365V1.147c0-.186.165-.37.347-.41l.07-.007h2.08zM91.11.47c.185 0 .37.124.408.334l.008.083V14.44c0 .208-.208.417-.416.417h-1.872c-.26 0-.416-.157-.416-.417V.886c0-.185.164-.37.347-.41l.069-.007h1.872zm41.65 4.275c.155 0 .363.104.415.26.104.365.208.834.572.834.624 0 .936-1.094 3.016-1.094h.728c.208 0 .416.156.416.417V7.09c0 .185-.164.37-.347.41l-.069.007h-.728c-1.56 0-2.704.73-2.704 2.241v4.692c0 .208-.208.417-.416.417h-1.872c-.26 0-.468-.157-.468-.417V5.16c0-.185.165-.37.347-.409l.07-.007h1.04zm9.099-4.275c.185 0 .37.124.408.334l.008.083V14.44c0 .208-.208.417-.416.417h-1.872c-.208 0-.416-.157-.416-.417V.886c0-.185.164-.37.347-.41l.069-.007h1.872zm34.786 0c.185 0 .37.124.408.334l.008.083v3.65c-.052.208.156.416.364.468h.052c.572-.26 1.196-.417 1.82-.469 2.235 0 3.64 1.408 3.64 3.701v6.152c0 .208-.209.417-.417.417h-1.872c-.208 0-.416-.157-.416-.417V8.497c0-.886-.572-1.407-1.56-1.407-.987 0-1.56.52-1.56 1.303v6.047c0 .208-.207.417-.415.417h-1.872c-.312 0-.468-.157-.468-.417V.886c0-.185.164-.37.347-.41l.069-.007h1.872zm-50.697 10.27h-1.976c-.884 0-1.248.469-1.248.99 0 .73.624 1.043 1.404 1.043 1.092.052 1.976-.313 1.976-1.356v-.469c0-.104-.052-.208-.156-.208zM17.638 7.246c-.468-.052-.987.104-1.3.47-.26.364-.311.885-.311 2.136 0 1.251.104 1.825.312 2.138.312.365.831.573 1.3.469.467.052.935-.104 1.3-.47.26-.364.311-.886.311-2.137 0-1.25-.104-1.824-.312-2.137-.312-.365-.832-.573-1.3-.47zm78.828.938v.209c0 .104.104.208.208.208h3.171c.104 0 .208-.052.208-.208 0-.939-.78-1.72-1.716-1.72h-.052c-.935-.105-1.715.573-1.82 1.511zm91.306 0v.209c0 .104.104.208.208.208h3.172c.104 0 .208-.052.208-.208 0-.939-.78-1.72-1.716-1.72h-.052c-.936-.105-1.716.573-1.82 1.511z"></path>
					</svg>
